HIERARCHY
ROOT root
{
  OFFSET 0 93.2929 0
  CHANNELS 6 Xposition Yposition Zposition Zrotation Xrotation Yrotation
  JOINT torso_1
  {
    OFFSET 0 5.07867 -1.15138
    CHANNELS 6 Xposition Yposition Zposition Zrotation Xrotation Yrotation
    JOINT torso_2
    {
      OFFSET 0 5.61661 1.07143
      CHANNELS 6 Xposition Yposition Zposition Zrotation Xrotation Yrotation
      JOINT torso_3
      {
        OFFSET -1.02604e-17 5.98978 0.11501
        CHANNELS 6 Xposition Yposition Zposition Zrotation Xrotation Yrotation
        JOINT torso_4
        {
          OFFSET -1.10457e-17 6.50583 -0.443523
          CHANNELS 6 Xposition Yposition Zposition Zrotation Xrotation Yrotation
          JOINT torso_5
          {
            OFFSET -1.97295e-17 7.60548 -1.50593
            CHANNELS 6 Xposition Yposition Zposition Zrotation Xrotation Yrotation
            JOINT torso_6
            {
              OFFSET -2.53307e-17 9.49737 -0.914492
              CHANNELS 6 Xposition Yposition Zposition Zrotation Xrotation Yrotation
              JOINT torso_7
              {
                OFFSET -2.90401e-17 10.5513 1.57691
                CHANNELS 6 Xposition Yposition Zposition Zrotation Xrotation Yrotation
                JOINT neck_1
                {
                  OFFSET -1.29193e-17 4.78644 0.715339
                  CHANNELS 6 Xposition Yposition Zposition Zrotation Xrotation Yrotation
                  JOINT neck_2
                  {
                    OFFSET -1.8116e-17 4.82109 0.421791
                    CHANNELS 6 Xposition Yposition Zposition Zrotation Xrotation Yrotation
                    JOINT head
                    {
                      OFFSET -2.00958e-17 4.83041 0.765062
                      CHANNELS 6 Xposition Yposition Zposition Zrotation Xrotation Yrotation
                      End Site
                      {
                        OFFSET 0 0.1 0
                      }
                    }
                  }
                }
                JOINT l_shoulder
                {
                  OFFSET 1.23299 -7.60731 7.53374
                  CHANNELS 6 Xposition Yposition Zposition Zrotation Xrotation Yrotation
                  JOINT l_up_arm
                  {
                    OFFSET 12.9547 3.2495 -3.26872
                    CHANNELS 6 Xposition Yposition Zposition Zrotation Xrotation Yrotation
                    JOINT l_low_arm
                    {
                      OFFSET 29.2081 0.0598081 0.137039
                      CHANNELS 6 Xposition Yposition Zposition Zrotation Xrotation Yrotation
                      JOINT l_hand
                      {
                        OFFSET 24.234 0.0496219 0.113701
                        CHANNELS 6 Xposition Yposition Zposition Zrotation Xrotation Yrotation
                        End Site
                        {
                          OFFSET 0.1 0 0
                        }
                      }
                    }
                  }
                }
                JOINT r_shoulder
                {
                  OFFSET -1.23299 -7.60729 7.53365
                  CHANNELS 6 Xposition Yposition Zposition Zrotation Xrotation Yrotation
                  JOINT r_up_arm
                  {
                    OFFSET -12.9547 3.2495 -3.26872
                    CHANNELS 6 Xposition Yposition Zposition Zrotation Xrotation Yrotation
                    JOINT r_low_arm
                    {
                      OFFSET -29.2081 0.0598081 0.137039
                      CHANNELS 6 Xposition Yposition Zposition Zrotation Xrotation Yrotation
                      JOINT r_hand
                      {
                        OFFSET -24.234 0.0496218 0.113702
                        CHANNELS 6 Xposition Yposition Zposition Zrotation Xrotation Yrotation
                        End Site
                        {
                          OFFSET -0.1 0 0
                        }
                      }
                    }
                  }
                }
              }
            }
          }
        }
      }
    }
  }
  JOINT l_up_leg
  {
    OFFSET 9.23673 -4.20556 2.0327
    CHANNELS 6 Xposition Yposition Zposition Zrotation Xrotation Yrotation
    JOINT l_low_leg
    {
      OFFSET -0.852353 -38.7721 -0.655187
      CHANNELS 6 Xposition Yposition Zposition Zrotation Xrotation Yrotation
      JOINT l_foot
      {
        OFFSET -2.32622 -40.4017 -6.04875
        CHANNELS 6 Xposition Yposition Zposition Zrotation Xrotation Yrotation
        JOINT l_toes
        {
          OFFSET 0.779096 -9.8844 12.4959
          CHANNELS 6 Xposition Yposition Zposition Zrotation Xrotation Yrotation
          End Site
          {
            OFFSET 0 0 0.1
          }
        }
      }
    }
  }
  JOINT r_up_leg
  {
    OFFSET -9.23673 -4.20556 2.0327
    CHANNELS 6 Xposition Yposition Zposition Zrotation Xrotation Yrotation
    JOINT r_low_leg
    {
      OFFSET 0.852353 -38.7721 -0.655187
      CHANNELS 6 Xposition Yposition Zposition Zrotation Xrotation Yrotation
      JOINT r_foot
      {
        OFFSET 2.32622 -40.4017 -6.04875
        CHANNELS 6 Xposition Yposition Zposition Zrotation Xrotation Yrotation
        JOINT r_toes
        {
          OFFSET -0.779096 -9.8844 12.4959
          CHANNELS 6 Xposition Yposition Zposition Zrotation Xrotation Yrotation
          End Site
          {
            OFFSET 0 0 0.1
          }
        }
      }
    }
  }
}
MOTION
Frames: 4
Frame Time: 0.016667
0 93.2929 0 -0 0 -0 0 5.07867 -1.15138 -0 0 -0 0 5.61661 1.07143 -0 0 -0 -1.02604e-17 5.98978 0.11501 -0 0 -0 -1.10457e-17 6.50583 -0.443523 -0 0 -0 -1.97295e-17 7.60548 -1.50593 -0 0 -0 -2.53307e-17 9.49737 -0.914492 -0 0 -0 -2.90401e-17 10.5513 1.57691 -0 0 -0 -1.29193e-17 4.78644 0.715339 -0 0 -0 -1.8116e-17 4.82109 0.421791 -0 0 -0 -2.00958e-17 4.83041 0.765062 -0 0 -0 1.23299 -7.60731 7.53374 -0 0 -0 12.9547 3.2495 -3.26872 -0 0 -0 29.2081 0.0598081 0.137039 -0 0 -0 24.234 0.0496219 0.113701 -0 0 -0 -1.23299 -7.60729 7.53365 -0 0 -0 -12.9547 3.2495 -3.26872 -0 0 -0 -29.2081 0.0598081 0.137039 -0 0 -0 -24.234 0.0496218 0.113702 -0 0 -0 9.23673 -4.20556 2.0327 -0 0 -0 -0.852353 -38.7721 -0.655187 -0 0 -0 -2.32622 -40.4017 -6.04875 -0 0 -0 0.779096 -9.8844 12.4959 -0 0 -0 -9.23673 -4.20556 2.0327 -0 0 -0 0.852353 -38.7721 -0.655187 -0 0 -0 2.32622 -40.4017 -6.04875 -0 0 -0 -0.779096 -9.8844 12.4959 -0 0 -0 
9.58624 90.7085 55.8149 9.87048 -5.67401 8.47783 0 5.07867 -1.15138 -3.58277 5.20916 -0.165195 0 5.61661 1.07143 -2.68064 3.6686 -0.661022 -1.02604e-17 5.98978 0.11501 -1.93516 2.33438 -0.605987 -1.10457e-17 6.50583 -0.443523 -1.14808 -0.547948 -0.633139 -1.97295e-17 7.60548 -1.50593 -0.434896 -1.87509 -0.552611 -2.53307e-17 9.49737 -0.914492 0.189931 -3.56918 -0.921966 -2.90401e-17 10.5513 1.57691 -0.0382739 1.1962 -0.0545181 -1.29193e-17 4.78644 0.715339 0.789959 6.79793 -2.88408 -1.8116e-17 4.82109 0.421791 0.921187 -4.13811 -1.50067 -2.00958e-17 4.83041 0.765062 0.974741 -6.83595 1.15879 1.23299 -7.60731 7.53374 13.4196 5.34982 2.32659 12.9547 3.2495 -3.26872 -95.7991 31.3427 8.933 29.2081 0.0598081 0.137039 3.99346 -0.668808 -19.5997 24.234 0.0496219 0.113701 -4.49628 -22.5281 -1.69085 -1.23299 -7.60729 7.53365 -10.5029 4.68255 -1.3767 -12.9547 3.2495 -3.26872 96.9039 20.8823 -5.55863 -29.2081 0.0598081 0.137039 -3.07963 -0.38925 14.9991 -24.234 0.0496218 0.113702 3.66052 -20.6691 1.14574 9.23673 -4.20556 2.0327 -9.12149 1.18953 -19.3202 -0.852353 -38.7721 -0.655187 -1.55342 5.79655 -0.0226094 -2.32622 -40.4017 -6.04875 0.51524 -3.30043 15.213 0.779096 -9.8844 12.4959 1.51371e-17 -7.95442e-16 1.27275e-17 -9.23673 -4.20556 2.0327 -10.3066 -12.9181 10.8884 0.852353 -38.7721 -0.655187 5.06335 18.4231 -0.496902 2.32622 -40.4017 -6.04875 -3.00335 -5.76833 -15.2539 -0.779096 -9.8844 12.4959 -2.08952e-15 -5.0121e-16 -1.26768e-14 
9.58097 90.7086 55.865 9.86587 -5.708 8.45081 0 5.07867 -1.15138 -3.57899 5.25015 -0.152113 0 5.61661 1.07143 -2.68228 3.69459 -0.645947 -1.02604e-17 5.98978 0.11501 -1.94012 2.34989 -0.591278 -1.10457e-17 6.50583 -0.443523 -1.15593 -0.552803 -0.618395 -1.97295e-17 7.60548 -1.50593 -0.442038 -1.88929 -0.536817 -2.53307e-17 9.49737 -0.914492 0.186883 -3.59013 -0.903016 -2.90401e-17 10.5513 1.57691 -0.0385042 1.19976 -0.0561412 -1.29193e-17 4.78644 0.715339 0.79778 6.87686 -2.9356 -1.8116e-17 4.82109 0.421791 0.933155 -4.12465 -1.52216 -2.00958e-17 4.83041 0.765062 0.940328 -6.87636 1.12215 1.23299 -7.60731 7.53374 13.3747 5.33995 2.3107 12.9547 3.2495 -3.26872 -95.77 31.192 8.89713 29.2081 0.0598081 0.137039 3.9812 -0.664521 -19.5373 24.234 0.0496219 0.113701 -4.52 -22.3071 -1.74384 -1.23299 -7.60729 7.53365 -10.6591 4.68179 -1.43702 -12.9547 3.2495 -3.26872 97.0548 21.0295 -5.66047 -29.2081 0.0598081 0.137039 -3.09868 -0.394266 15.0939 -24.234 0.0496218 0.113702 3.67112 -20.8861 1.18339 9.23673 -4.20556 2.0327 -9.11371 1.23005 -19.3276 -0.852353 -38.7721 -0.655187 -1.55414 5.79922 -0.0225835 -2.32622 -40.4017 -6.04875 0.525704 -3.30628 15.2125 0.779096 -9.8844 12.4959 4.12706e-16 -7.83018e-16 3.0347e-19 -9.23673 -4.20556 2.0327 -10.2973 -12.9157 10.9042 0.852353 -38.7721 -0.655187 5.06822 18.4397 -0.49815 2.32622 -40.4017 -6.04875 -2.98128 -5.73853 -15.2536 -0.779096 -9.8844 12.4959 -1.02306e-15 -5.45444e-16 -1.2721e-14 
9.5742 90.7089 55.9148 9.8557 -5.74614 8.40601 0 5.07867 -1.15138 -3.5754 5.29494 -0.13897 0 5.61661 1.07143 -2.68332 3.7228 -0.630756 -1.02604e-17 5.98978 0.11501 -1.9438 2.36573 -0.576036 -1.10457e-17 6.50583 -0.443523 -1.162 -0.56083 -0.602979 -1.97295e-17 7.60548 -1.50593 -0.446801 -1.907 -0.520477 -2.53307e-17 9.49737 -0.914492 0.186064 -3.61563 -0.885001 -2.90401e-17 10.5513 1.57691 -0.0382785 1.20356 -0.0563319 -1.29193e-17 4.78644 0.715339 0.799795 6.93012 -2.98014 -1.8116e-17 4.82109 0.421791 0.934748 -4.10383 -1.54144 -2.00958e-17 4.83041 0.765062 0.906181 -6.89047 1.09289 1.23299 -7.60731 7.53374 13.3737 5.34165 2.30222 12.9547 3.2495 -3.26872 -95.7554 31.1058 8.87218 29.2081 0.0598081 0.137039 3.97377 -0.661932 -19.4994 24.234 0.0496219 0.113701 -4.56885 -22.149 -1.80326 -1.23299 -7.60729 7.53365 -10.7418 4.69241 -1.47554 -12.9547 3.2495 -3.26872 97.1439 21.0941 -5.74529 -29.2081 0.0598081 0.137039 -3.11763 -0.399291 15.1883 -24.234 0.0496218 0.113702 3.66389 -21.0196 1.20529 9.23673 -4.20556 2.0327 -9.09879 1.27311 -19.3004 -0.852353 -38.7721 -0.655187 -1.55464 5.8011 -0.0225652 -2.32622 -40.4017 -6.04875 0.53465 -3.31772 15.2129 0.779096 -9.8844 12.4959 3.45591e-17 -7.94835e-16 1.21206e-17 -9.23673 -4.20556 2.0327 -10.2765 -12.921 10.9406 0.852353 -38.7721 -0.655187 5.07564 18.4651 -0.500054 2.32622 -40.4017 -6.04875 -2.96397 -5.69948 -15.2515 -0.779096 -9.8844 12.4959 -6.06065e-16 -5.58778e-16 -1.27465e-14 
